<mxfile host="app.diagrams.net" agent="Mozilla/5.0 (Windows NT 10.0; Win64; x64) AppleWebKit/537.36 (KHTML, like Gecko) Chrome/131.0.0.0 Safari/537.36 Edg/131.0.0.0" version="24.8.8">
  <diagram id="C5RBs43oDa-KdzZeNtuy" name="Page-1">
    <mxGraphModel dx="858" dy="469" grid="1" gridSize="10" guides="1" tooltips="1" connect="1" arrows="1" fold="1" page="1" pageScale="1" pageWidth="827" pageHeight="1169" math="0" shadow="0">
      <root>
        <mxCell id="WIyWlLk6GJQsqaUBKTNV-0" />
        <mxCell id="WIyWlLk6GJQsqaUBKTNV-1" parent="WIyWlLk6GJQsqaUBKTNV-0" />
        <mxCell id="WIyWlLk6GJQsqaUBKTNV-2" value="" style="rounded=0;html=1;jettySize=auto;orthogonalLoop=1;fontSize=11;endArrow=block;endFill=0;endSize=8;strokeWidth=1;shadow=0;labelBackgroundColor=none;edgeStyle=orthogonalEdgeStyle;" parent="WIyWlLk6GJQsqaUBKTNV-1" source="WIyWlLk6GJQsqaUBKTNV-3" target="WIyWlLk6GJQsqaUBKTNV-6" edge="1">
          <mxGeometry relative="1" as="geometry" />
        </mxCell>
        <mxCell id="WIyWlLk6GJQsqaUBKTNV-3" value="Lamp doesn&#39;t work" style="rounded=1;whiteSpace=wrap;html=1;fontSize=12;glass=0;strokeWidth=1;shadow=0;" parent="WIyWlLk6GJQsqaUBKTNV-1" vertex="1">
          <mxGeometry x="160" y="80" width="120" height="40" as="geometry" />
        </mxCell>
        <mxCell id="WIyWlLk6GJQsqaUBKTNV-4" value="Yes" style="rounded=0;html=1;jettySize=auto;orthogonalLoop=1;fontSize=11;endArrow=block;endFill=0;endSize=8;strokeWidth=1;shadow=0;labelBackgroundColor=none;edgeStyle=orthogonalEdgeStyle;" parent="WIyWlLk6GJQsqaUBKTNV-1" source="WIyWlLk6GJQsqaUBKTNV-6" target="WIyWlLk6GJQsqaUBKTNV-10" edge="1">
          <mxGeometry y="20" relative="1" as="geometry">
            <mxPoint as="offset" />
          </mxGeometry>
        </mxCell>
        <mxCell id="WIyWlLk6GJQsqaUBKTNV-5" value="No" style="edgeStyle=orthogonalEdgeStyle;rounded=0;html=1;jettySize=auto;orthogonalLoop=1;fontSize=11;endArrow=block;endFill=0;endSize=8;strokeWidth=1;shadow=0;labelBackgroundColor=none;" parent="WIyWlLk6GJQsqaUBKTNV-1" source="WIyWlLk6GJQsqaUBKTNV-6" target="WIyWlLk6GJQsqaUBKTNV-7" edge="1">
          <mxGeometry y="10" relative="1" as="geometry">
            <mxPoint as="offset" />
          </mxGeometry>
        </mxCell>
        <mxCell id="WIyWlLk6GJQsqaUBKTNV-6" value="Lamp&lt;br&gt;plugged in?" style="rhombus;whiteSpace=wrap;html=1;shadow=0;fontFamily=Helvetica;fontSize=12;align=center;strokeWidth=1;spacing=6;spacingTop=-4;" parent="WIyWlLk6GJQsqaUBKTNV-1" vertex="1">
          <mxGeometry x="170" y="170" width="100" height="80" as="geometry" />
        </mxCell>
        <mxCell id="WIyWlLk6GJQsqaUBKTNV-7" value="Plug in lamp" style="rounded=1;whiteSpace=wrap;html=1;fontSize=12;glass=0;strokeWidth=1;shadow=0;" parent="WIyWlLk6GJQsqaUBKTNV-1" vertex="1">
          <mxGeometry x="320" y="190" width="120" height="40" as="geometry" />
        </mxCell>
        <mxCell id="WIyWlLk6GJQsqaUBKTNV-8" value="No" style="rounded=0;html=1;jettySize=auto;orthogonalLoop=1;fontSize=11;endArrow=block;endFill=0;endSize=8;strokeWidth=1;shadow=0;labelBackgroundColor=none;edgeStyle=orthogonalEdgeStyle;" parent="WIyWlLk6GJQsqaUBKTNV-1" source="WIyWlLk6GJQsqaUBKTNV-10" target="WIyWlLk6GJQsqaUBKTNV-11" edge="1">
          <mxGeometry x="0.3333" y="20" relative="1" as="geometry">
            <mxPoint as="offset" />
          </mxGeometry>
        </mxCell>
        <mxCell id="WIyWlLk6GJQsqaUBKTNV-9" value="Yes" style="edgeStyle=orthogonalEdgeStyle;rounded=0;html=1;jettySize=auto;orthogonalLoop=1;fontSize=11;endArrow=block;endFill=0;endSize=8;strokeWidth=1;shadow=0;labelBackgroundColor=none;" parent="WIyWlLk6GJQsqaUBKTNV-1" source="WIyWlLk6GJQsqaUBKTNV-10" target="WIyWlLk6GJQsqaUBKTNV-12" edge="1">
          <mxGeometry y="10" relative="1" as="geometry">
            <mxPoint as="offset" />
          </mxGeometry>
        </mxCell>
        <mxCell id="WIyWlLk6GJQsqaUBKTNV-10" value="Bulb&lt;br&gt;burned out?" style="rhombus;whiteSpace=wrap;html=1;shadow=0;fontFamily=Helvetica;fontSize=12;align=center;strokeWidth=1;spacing=6;spacingTop=-4;" parent="WIyWlLk6GJQsqaUBKTNV-1" vertex="1">
          <mxGeometry x="170" y="290" width="100" height="80" as="geometry" />
        </mxCell>
        <mxCell id="WIyWlLk6GJQsqaUBKTNV-11" value="Repair Lamp" style="rounded=1;whiteSpace=wrap;html=1;fontSize=12;glass=0;strokeWidth=1;shadow=0;" parent="WIyWlLk6GJQsqaUBKTNV-1" vertex="1">
          <mxGeometry x="160" y="430" width="120" height="40" as="geometry" />
        </mxCell>
        <mxCell id="WIyWlLk6GJQsqaUBKTNV-12" value="Replace Bulb" style="rounded=1;whiteSpace=wrap;html=1;fontSize=12;glass=0;strokeWidth=1;shadow=0;" parent="WIyWlLk6GJQsqaUBKTNV-1" vertex="1">
          <mxGeometry x="320" y="310" width="120" height="40" as="geometry" />
        </mxCell>
        <mxCell id="wvQjeKutmBkFYODUUVqB-1" value="Tampilan Menu Utama" style="whiteSpace=wrap;strokeWidth=2;" vertex="1" parent="WIyWlLk6GJQsqaUBKTNV-1">
          <mxGeometry x="686" y="590" width="220" height="49" as="geometry" />
        </mxCell>
        <mxCell id="wvQjeKutmBkFYODUUVqB-6" value="Total Pengeluaran" style="whiteSpace=wrap;strokeWidth=2;" vertex="1" parent="WIyWlLk6GJQsqaUBKTNV-1">
          <mxGeometry x="831" y="883" width="189" height="49" as="geometry" />
        </mxCell>
        <mxCell id="wvQjeKutmBkFYODUUVqB-7" value="Keluar dari Aplikasi" style="whiteSpace=wrap;strokeWidth=2;" vertex="1" parent="WIyWlLk6GJQsqaUBKTNV-1">
          <mxGeometry x="1070" y="883" width="198" height="49" as="geometry" />
        </mxCell>
        <mxCell id="wvQjeKutmBkFYODUUVqB-9" value="Simpan Data Pengeluaran" style="whiteSpace=wrap;strokeWidth=2;" vertex="1" parent="WIyWlLk6GJQsqaUBKTNV-1">
          <mxGeometry x="238" y="1099" width="242" height="49" as="geometry" />
        </mxCell>
        <mxCell id="wvQjeKutmBkFYODUUVqB-49" value="" style="edgeStyle=orthogonalEdgeStyle;rounded=0;orthogonalLoop=1;jettySize=auto;html=1;" edge="1" parent="WIyWlLk6GJQsqaUBKTNV-1" source="wvQjeKutmBkFYODUUVqB-12" target="wvQjeKutmBkFYODUUVqB-48">
          <mxGeometry relative="1" as="geometry" />
        </mxCell>
        <mxCell id="wvQjeKutmBkFYODUUVqB-12" value="Hapus Data Pengeluaran" style="whiteSpace=wrap;strokeWidth=2;" vertex="1" parent="WIyWlLk6GJQsqaUBKTNV-1">
          <mxGeometry x="1261" y="1099" width="234" height="49" as="geometry" />
        </mxCell>
        <mxCell id="wvQjeKutmBkFYODUUVqB-13" value="Tampilkan Total Pengeluaran" style="whiteSpace=wrap;strokeWidth=2;" vertex="1" parent="WIyWlLk6GJQsqaUBKTNV-1">
          <mxGeometry x="774" y="982" width="174" height="67" as="geometry" />
        </mxCell>
        <mxCell id="wvQjeKutmBkFYODUUVqB-14" value="Keluar dari Aplikasi" style="whiteSpace=wrap;strokeWidth=2;" vertex="1" parent="WIyWlLk6GJQsqaUBKTNV-1">
          <mxGeometry x="1070" y="991" width="198" height="49" as="geometry" />
        </mxCell>
        <mxCell id="wvQjeKutmBkFYODUUVqB-15" value="" style="curved=1;startArrow=none;endArrow=block;exitX=0.5;exitY=1;entryX=0.5;entryY=0;rounded=0;" edge="1" parent="WIyWlLk6GJQsqaUBKTNV-1" target="wvQjeKutmBkFYODUUVqB-1">
          <mxGeometry relative="1" as="geometry">
            <Array as="points" />
            <mxPoint x="796" y="539" as="sourcePoint" />
          </mxGeometry>
        </mxCell>
        <mxCell id="wvQjeKutmBkFYODUUVqB-16" value="" style="curved=1;startArrow=none;endArrow=block;exitX=1;exitY=0.99;entryX=0.5;entryY=0;rounded=0;" edge="1" parent="WIyWlLk6GJQsqaUBKTNV-1" source="wvQjeKutmBkFYODUUVqB-1">
          <mxGeometry relative="1" as="geometry">
            <Array as="points">
              <mxPoint x="1024" y="663" />
            </Array>
            <mxPoint x="1024" y="688" as="targetPoint" />
          </mxGeometry>
        </mxCell>
        <mxCell id="wvQjeKutmBkFYODUUVqB-17" value="Tambah Pengeluaran" style="curved=1;startArrow=none;endArrow=block;exitX=0;exitY=0.62;entryX=0.5;entryY=0.01;rounded=0;" edge="1" parent="WIyWlLk6GJQsqaUBKTNV-1">
          <mxGeometry relative="1" as="geometry">
            <Array as="points">
              <mxPoint x="612" y="847" />
            </Array>
            <mxPoint x="974.8064516129034" y="760.8064516129034" as="sourcePoint" />
            <mxPoint x="611.5" y="883" as="targetPoint" />
          </mxGeometry>
        </mxCell>
        <mxCell id="wvQjeKutmBkFYODUUVqB-18" value="Lihat Pengeluaran" style="curved=1;startArrow=none;endArrow=block;exitX=0;exitY=0.58;entryX=0.5;entryY=0.01;rounded=0;" edge="1" parent="WIyWlLk6GJQsqaUBKTNV-1">
          <mxGeometry relative="1" as="geometry">
            <Array as="points">
              <mxPoint x="363" y="847" />
            </Array>
            <mxPoint x="971.4137931034484" y="757.4137931034484" as="sourcePoint" />
            <mxPoint x="362.5" y="883" as="targetPoint" />
          </mxGeometry>
        </mxCell>
        <mxCell id="wvQjeKutmBkFYODUUVqB-19" value="Hapus Pengeluaran" style="curved=1;startArrow=none;endArrow=block;exitX=1;exitY=0.62;entryX=0.5;entryY=0.01;rounded=0;" edge="1" parent="WIyWlLk6GJQsqaUBKTNV-1">
          <mxGeometry relative="1" as="geometry">
            <Array as="points">
              <mxPoint x="1453" y="847" />
            </Array>
            <mxPoint x="1073.1935483870966" y="760.8064516129034" as="sourcePoint" />
            <mxPoint x="1453" y="883" as="targetPoint" />
          </mxGeometry>
        </mxCell>
        <mxCell id="wvQjeKutmBkFYODUUVqB-20" value="Total Pengeluaran" style="curved=1;startArrow=none;endArrow=block;exitX=0.25;exitY=1;entryX=0.5;entryY=0.01;rounded=0;exitDx=0;exitDy=0;" edge="1" parent="WIyWlLk6GJQsqaUBKTNV-1" source="wvQjeKutmBkFYODUUVqB-35" target="wvQjeKutmBkFYODUUVqB-6">
          <mxGeometry relative="1" as="geometry">
            <Array as="points">
              <mxPoint x="926" y="847" />
            </Array>
            <mxPoint x="993.5" y="779.5" as="sourcePoint" />
          </mxGeometry>
        </mxCell>
        <mxCell id="wvQjeKutmBkFYODUUVqB-21" value="Keluar" style="curved=1;startArrow=none;endArrow=block;exitX=1;exitY=0.84;entryX=0.5;entryY=0.01;rounded=0;" edge="1" parent="WIyWlLk6GJQsqaUBKTNV-1" target="wvQjeKutmBkFYODUUVqB-7">
          <mxGeometry relative="1" as="geometry">
            <Array as="points">
              <mxPoint x="1169" y="847" />
            </Array>
            <mxPoint x="1060.3095238095239" y="773.6904761904761" as="sourcePoint" />
          </mxGeometry>
        </mxCell>
        <mxCell id="wvQjeKutmBkFYODUUVqB-22" value="" style="curved=1;startArrow=none;endArrow=block;exitX=0.5;exitY=1.01;entryX=0.5;entryY=0.01;rounded=0;" edge="1" parent="WIyWlLk6GJQsqaUBKTNV-1">
          <mxGeometry relative="1" as="geometry">
            <Array as="points" />
            <mxPoint x="611.5" y="932" as="sourcePoint" />
            <mxPoint x="612" y="982" as="targetPoint" />
          </mxGeometry>
        </mxCell>
        <mxCell id="wvQjeKutmBkFYODUUVqB-23" value="" style="curved=1;startArrow=none;endArrow=block;exitX=0.5;exitY=1;entryX=1;entryY=0.02;rounded=0;" edge="1" parent="WIyWlLk6GJQsqaUBKTNV-1" target="wvQjeKutmBkFYODUUVqB-9">
          <mxGeometry relative="1" as="geometry">
            <Array as="points">
              <mxPoint x="612" y="1074" />
            </Array>
            <mxPoint x="612" y="1049" as="sourcePoint" />
          </mxGeometry>
        </mxCell>
        <mxCell id="wvQjeKutmBkFYODUUVqB-24" value="" style="curved=1;startArrow=none;endArrow=block;exitX=0.09;exitY=0;entryX=0;entryY=0.67;rounded=0;" edge="1" parent="WIyWlLk6GJQsqaUBKTNV-1" source="wvQjeKutmBkFYODUUVqB-9" target="wvQjeKutmBkFYODUUVqB-1">
          <mxGeometry relative="1" as="geometry">
            <Array as="points">
              <mxPoint x="160" y="1074" />
              <mxPoint x="160" y="663" />
            </Array>
          </mxGeometry>
        </mxCell>
        <mxCell id="wvQjeKutmBkFYODUUVqB-25" value="" style="curved=1;startArrow=none;endArrow=block;exitX=0.5;exitY=1.01;entryX=0.7;entryY=0.01;rounded=0;" edge="1" parent="WIyWlLk6GJQsqaUBKTNV-1">
          <mxGeometry relative="1" as="geometry">
            <Array as="points">
              <mxPoint x="363" y="957" />
            </Array>
            <mxPoint x="362.5" y="932" as="sourcePoint" />
            <mxPoint x="335.55102040816337" y="982" as="targetPoint" />
          </mxGeometry>
        </mxCell>
        <mxCell id="wvQjeKutmBkFYODUUVqB-26" value="" style="curved=1;startArrow=none;endArrow=block;exitX=0.3;exitY=0.01;entryX=0;entryY=0.7;rounded=0;" edge="1" parent="WIyWlLk6GJQsqaUBKTNV-1" target="wvQjeKutmBkFYODUUVqB-1">
          <mxGeometry relative="1" as="geometry">
            <Array as="points">
              <mxPoint x="233" y="957" />
              <mxPoint x="233" y="663" />
            </Array>
            <mxPoint x="260.44897959183663" y="982" as="sourcePoint" />
          </mxGeometry>
        </mxCell>
        <mxCell id="wvQjeKutmBkFYODUUVqB-27" value="" style="curved=1;startArrow=none;endArrow=block;exitX=0.5;exitY=1.01;entryX=0.5;entryY=0.01;rounded=0;" edge="1" parent="WIyWlLk6GJQsqaUBKTNV-1">
          <mxGeometry relative="1" as="geometry">
            <Array as="points" />
            <mxPoint x="1453" y="932" as="sourcePoint" />
            <mxPoint x="1453" y="982" as="targetPoint" />
          </mxGeometry>
        </mxCell>
        <mxCell id="wvQjeKutmBkFYODUUVqB-28" value="" style="curved=1;startArrow=none;endArrow=block;exitX=0.5;exitY=1;entryX=0.66;entryY=0;rounded=0;" edge="1" parent="WIyWlLk6GJQsqaUBKTNV-1" target="wvQjeKutmBkFYODUUVqB-12">
          <mxGeometry relative="1" as="geometry">
            <Array as="points">
              <mxPoint x="1453" y="1074" />
            </Array>
            <mxPoint x="1453" y="1049" as="sourcePoint" />
          </mxGeometry>
        </mxCell>
        <mxCell id="wvQjeKutmBkFYODUUVqB-29" value="" style="curved=1;startArrow=none;endArrow=block;exitX=0.34;exitY=0;entryX=1;entryY=0.72;rounded=0;" edge="1" parent="WIyWlLk6GJQsqaUBKTNV-1" source="wvQjeKutmBkFYODUUVqB-12" target="wvQjeKutmBkFYODUUVqB-1">
          <mxGeometry relative="1" as="geometry">
            <Array as="points">
              <mxPoint x="1303" y="1074" />
              <mxPoint x="1303" y="663" />
            </Array>
          </mxGeometry>
        </mxCell>
        <mxCell id="wvQjeKutmBkFYODUUVqB-30" value="" style="curved=1;startArrow=none;endArrow=block;exitX=0.5;exitY=1.01;entryX=0.71;entryY=0.01;rounded=0;" edge="1" parent="WIyWlLk6GJQsqaUBKTNV-1" source="wvQjeKutmBkFYODUUVqB-6" target="wvQjeKutmBkFYODUUVqB-13">
          <mxGeometry relative="1" as="geometry">
            <Array as="points">
              <mxPoint x="926" y="957" />
            </Array>
          </mxGeometry>
        </mxCell>
        <mxCell id="wvQjeKutmBkFYODUUVqB-31" value="" style="curved=1;startArrow=none;endArrow=block;exitX=0.29;exitY=0.01;entryX=0.5;entryY=1;rounded=0;" edge="1" parent="WIyWlLk6GJQsqaUBKTNV-1" source="wvQjeKutmBkFYODUUVqB-13" target="wvQjeKutmBkFYODUUVqB-1">
          <mxGeometry relative="1" as="geometry">
            <Array as="points">
              <mxPoint x="796" y="957" />
            </Array>
          </mxGeometry>
        </mxCell>
        <mxCell id="wvQjeKutmBkFYODUUVqB-32" value="" style="curved=1;startArrow=none;endArrow=block;exitX=0.5;exitY=1.01;entryX=0.5;entryY=0;rounded=0;" edge="1" parent="WIyWlLk6GJQsqaUBKTNV-1" source="wvQjeKutmBkFYODUUVqB-7" target="wvQjeKutmBkFYODUUVqB-14">
          <mxGeometry relative="1" as="geometry">
            <Array as="points" />
          </mxGeometry>
        </mxCell>
        <mxCell id="wvQjeKutmBkFYODUUVqB-34" value="Start" style="ellipse;whiteSpace=wrap;html=1;" vertex="1" parent="WIyWlLk6GJQsqaUBKTNV-1">
          <mxGeometry x="716" y="460" width="160" height="80" as="geometry" />
        </mxCell>
        <mxCell id="wvQjeKutmBkFYODUUVqB-35" value="Input pilih pengguna" style="shape=parallelogram;perimeter=parallelogramPerimeter;whiteSpace=wrap;html=1;fixedSize=1;" vertex="1" parent="WIyWlLk6GJQsqaUBKTNV-1">
          <mxGeometry x="960" y="690" width="150" height="80" as="geometry" />
        </mxCell>
        <mxCell id="wvQjeKutmBkFYODUUVqB-39" value="Tampilkan hasil" style="shape=parallelogram;perimeter=parallelogramPerimeter;whiteSpace=wrap;html=1;fixedSize=1;" vertex="1" parent="WIyWlLk6GJQsqaUBKTNV-1">
          <mxGeometry x="240" y="980" width="160" height="60" as="geometry" />
        </mxCell>
        <mxCell id="wvQjeKutmBkFYODUUVqB-40" value="Input deskripsi&amp;nbsp;" style="shape=parallelogram;perimeter=parallelogramPerimeter;whiteSpace=wrap;html=1;fixedSize=1;" vertex="1" parent="WIyWlLk6GJQsqaUBKTNV-1">
          <mxGeometry x="552" y="883" width="138" height="47" as="geometry" />
        </mxCell>
        <mxCell id="wvQjeKutmBkFYODUUVqB-41" style="edgeStyle=orthogonalEdgeStyle;rounded=0;orthogonalLoop=1;jettySize=auto;html=1;exitX=0.5;exitY=1;exitDx=0;exitDy=0;" edge="1" parent="WIyWlLk6GJQsqaUBKTNV-1" source="wvQjeKutmBkFYODUUVqB-40" target="wvQjeKutmBkFYODUUVqB-40">
          <mxGeometry relative="1" as="geometry" />
        </mxCell>
        <mxCell id="wvQjeKutmBkFYODUUVqB-42" value="Cetak daftar pengeluaran" style="shape=parallelogram;perimeter=parallelogramPerimeter;whiteSpace=wrap;html=1;fixedSize=1;" vertex="1" parent="WIyWlLk6GJQsqaUBKTNV-1">
          <mxGeometry x="270" y="883" width="200" height="47" as="geometry" />
        </mxCell>
        <mxCell id="wvQjeKutmBkFYODUUVqB-43" value="Tambahkan data ke daftar pengeluaran" style="rounded=0;whiteSpace=wrap;html=1;" vertex="1" parent="WIyWlLk6GJQsqaUBKTNV-1">
          <mxGeometry x="530" y="985.5" width="170" height="64.5" as="geometry" />
        </mxCell>
        <mxCell id="wvQjeKutmBkFYODUUVqB-44" value="Tampilkan daftar pengeluaran" style="rounded=0;whiteSpace=wrap;html=1;" vertex="1" parent="WIyWlLk6GJQsqaUBKTNV-1">
          <mxGeometry x="1360" y="883" width="180" height="47" as="geometry" />
        </mxCell>
        <mxCell id="wvQjeKutmBkFYODUUVqB-48" value="" style="rounded=1;whiteSpace=wrap;html=1;strokeWidth=2;" vertex="1" parent="WIyWlLk6GJQsqaUBKTNV-1">
          <mxGeometry x="1318" y="1222.5" width="120" height="60" as="geometry" />
        </mxCell>
        <mxCell id="wvQjeKutmBkFYODUUVqB-50" value="&lt;br&gt;&lt;div&gt;&amp;nbsp; Apakah daftar&amp;nbsp;&lt;/div&gt;&lt;div&gt;kosong?&lt;/div&gt;" style="rhombus;whiteSpace=wrap;html=1;" vertex="1" parent="WIyWlLk6GJQsqaUBKTNV-1">
          <mxGeometry x="1385" y="980" width="130" height="98" as="geometry" />
        </mxCell>
      </root>
    </mxGraphModel>
  </diagram>
</mxfile>
